<svg width="91" height="34" viewBox="0 0 91 34" fill="none" xmlns="http://www.w3.org/2000/svg">
<path d="M17.9966 34C9.68009 34 0 27.5442 0 16.3188C0 5.73424 7.23078 0 13.5443 0C15.3091 0 17.3465 0.474644 17.9966 0.900057H18.0027C18.6535 0.474644 20.6901 0 22.4557 0C28.7685 0 36 5.73424 36 16.3188C36 27.5442 26.2809 34 18.0027 34H17.9966ZM18.0027 29.6674C25.0788 29.6674 31.6435 24.2716 31.6435 15.9757C31.6435 8.46211 26.2525 3.9518 22.2344 4.28413C22.2344 4.28413 22.435 4.47491 22.8883 4.96649C23.8844 6.04348 25.421 8.67443 25.421 11.6016C25.421 16.2903 21.8179 19.2328 18.0027 19.2328H17.9966C14.1821 19.2328 10.5782 16.2903 10.5782 11.6016C10.5782 8.67443 12.1156 6.04348 13.1125 4.96649C13.565 4.47491 13.7648 4.28413 13.7648 4.28413C9.7467 3.9518 4.35654 8.46211 4.35654 15.9757C4.35654 24.2716 10.9212 29.6674 17.9966 29.6674H18.0027ZM18.0027 14.9941C19.4582 14.9941 21.1449 13.974 21.1449 11.1854C21.1449 8.49673 19.2844 6.26889 18.0027 5.36421H17.9966C16.6927 6.26889 14.8559 8.49673 14.8559 11.1854C14.8559 13.974 16.5426 14.9941 17.9966 14.9941H18.0027Z" fill="#2E72B6"/>
<path d="M42 8V11.3125H43.9228V21.6875H42V25H49.6601V21.6875H47.8924V15.4062L53.0405 25H56.8551V11.3125H58.7778V8H51.1177V11.3438H53.0405V17.75L47.8304 8H42ZM60.0494 8V14.4375H63.3677V11.3125H65.3215V21.6875H62.7785V25H72.2063V21.6875H69.6323V11.3125H71.5861V14.4375H74.9044V8H60.0494ZM76.1759 8V14.4375H79.4943V11.3125H81.4171V21.6875H78.9051V25H88.3329V21.6875H85.7589V11.3125H87.7127V14.4375H91V8H76.1759Z" fill="black"/>
</svg>
